<svg width="1170" height="527" viewBox="0 0 1170 527" fill="none" xmlns="http://www.w3.org/2000/svg">
<path d="M61 209L66.176 264.824L122 270L66.176 275.176L61 331L55.824 275.176L0 270L55.824 264.824L61 209Z" fill="#0A9368"/>
<path d="M287 483L288.867 503.133L309 505L288.867 506.867L287 527L285.133 506.867L265 505L285.133 503.133L287 483Z" fill="#0A9368"/>
<path d="M1007 0L1008.87 20.1332L1029 22L1008.87 23.8668L1007 44L1005.13 23.8668L985 22L1005.13 20.1332L1007 0Z" fill="#0A9368"/>
<path d="M1109 209L1114.18 264.824L1170 270L1114.18 275.176L1109 331L1103.82 275.176L1048 270L1103.82 264.824L1109 209Z" fill="#0A9368"/>
</svg>
